<svg width="512" height="512" viewBox="0 0 512 512" fill="none" xmlns="http://www.w3.org/2000/svg">
  <rect width="512" height="512" rx="64" fill="#3b82f6"/>
  <svg x="128" y="128" width="256" height="256" viewBox="0 0 24 24" fill="none" stroke="white" stroke-width="2" stroke-linecap="round" stroke-linejoin="round">
    <path d="M14 7h6a4 4 0 0 1 4 4v6a4 4 0 0 1-4 4h-6a4 4 0 0 1-4-4v-6a4 4 0 0 1 4-4z"/>
    <path d="M10 11H14V15H10Z"/>
    <path d="M10 7H6a4 4 0 0 0-4 4v6a4 4 0 0 0 4 4h4a4 4 0 0 0 4-4v-6a4 4 0 0 0-4-4z"/>
  </svg>
</svg>
